<?xml version="1.0" encoding="utf-8"?>
<!-- Generator: Adobe Illustrator 16.0.0, SVG Export Plug-In . SVG Version: 6.00 Build 0)  -->
<!DOCTYPE svg PUBLIC "-//W3C//DTD SVG 1.1//EN" "http://www.w3.org/Graphics/SVG/1.1/DTD/svg11.dtd">
<svg version="1.1" id="Layer_1" xmlns="http://www.w3.org/2000/svg" xmlns:xlink="http://www.w3.org/1999/xlink" x="0px" y="0px"
	 width="609.801px" height="841.891px" viewBox="290.374 0 609.801 841.891" enable-background="new 290.374 0 609.801 841.891"
	 xml:space="preserve">
<g>
	<g>
		<path fill="#56453B" d="M595.275,0C427.151,0,290.374,136.777,290.374,304.899c0,208.644,272.856,514.944,284.474,527.883
			c10.912,12.152,29.962,12.132,40.855,0c11.617-12.938,284.473-319.239,284.473-527.883C900.171,136.777,763.396,0,595.275,0z
			 M595.275,458.303c-84.588,0-153.402-68.815-153.402-153.402c0-84.587,68.816-153.402,153.402-153.402
			c84.585,0,153.4,68.816,153.4,153.403C748.675,389.487,679.861,458.303,595.275,458.303z"/>
	</g>
</g>
</svg>
