<?xml version="1.0" encoding="utf-8"?>
<!-- Generator: Adobe Illustrator 23.1.0, SVG Export Plug-In . SVG Version: 6.00 Build 0)  -->
<svg version="1.1" id="Layer_1" xmlns="http://www.w3.org/2000/svg" xmlns:xlink="http://www.w3.org/1999/xlink" x="0px" y="0px"
	 viewBox="0 0 841.9 660.9" style="enable-background:new 0 0 841.9 660.9;" xml:space="preserve">
<style type="text/css">
	.st0{fill:#56453B;}
</style>
<g>
	<g>
		<path class="st0" d="M807.9,298.7H34c-18.8,0-34,15.2-34,34s15.2,34,34,34h773.9c18.8,0,34-15.2,34-34S826.7,298.7,807.9,298.7z"
			/>
	</g>
</g>
<g>
	<g>
		<path class="st0" d="M807.9,0H34C15.2,0,0,15.2,0,34s15.2,34,34,34h773.9c18.8,0,34-15.2,34-34S826.7,0,807.9,0z"/>
	</g>
</g>
<rect class="st0" width="841.9" height="87.3"/>
<rect y="289" class="st0" width="841.9" height="87.3"/>
<rect y="298.7" class="st0" width="841.9" height="68"/>
<g>
	<g>
		<path class="st0" d="M807.9,583.3H34c-18.8,0-34,15.2-34,34c0,18.8,15.2,34,34,34h773.9c18.8,0,34-15.2,34-34
			C841.9,598.5,826.7,583.3,807.9,583.3z"/>
	</g>
</g>
<rect y="573.6" class="st0" width="841.9" height="87.3"/>
<rect y="583.3" class="st0" width="841.9" height="68"/>
</svg>
