<?xml version="1.0" encoding="utf-8"?>
<!-- Generator: Adobe Illustrator 16.0.0, SVG Export Plug-In . SVG Version: 6.00 Build 0)  -->
<!DOCTYPE svg PUBLIC "-//W3C//DTD SVG 1.1//EN" "http://www.w3.org/Graphics/SVG/1.1/DTD/svg11.dtd">
<svg version="1.1" id="ico_search" xmlns="http://www.w3.org/2000/svg" xmlns:xlink="http://www.w3.org/1999/xlink" x="0px" y="0px"
	 width="210px" height="78px" viewBox="-173.75 -16.75 210 78" enable-background="new -173.75 -16.75 210 78" xml:space="preserve"
	>
<path fill="#03CF5D" d="M2351.377,1694.557h9l-4.5,4L2351.377,1694.557z"/>
<path fill="#C4C4C4" d="M2133.342,912.219h9l-4.5,4L2133.342,912.219z"/>
<path fill="#C4C4C4" d="M2249.896,899.359h9l-4.5-4L2249.896,899.359z"/>
<path fill="#03CF5D" d="M1971.406,663.76h9l-4.5-4L1971.406,663.76z"/>
<path fill="#B4B4B4" d="M1590.916,426.16h14v7h-15v-7H1590.916z M1602.916,432.16h1v-1h-1V432.16z M1602.916,430.16h1v-1h-1V430.16z
	 M1602.916,428.16h1v-1h-1V428.16z M1595.916,427.16h-1v1h1V427.16z M1595.916,429.16h-1v1h1V429.16z M1597.916,427.16h-1v1h1
	V427.16z M1597.916,429.16h-1v1h1V429.16z M1599.916,427.16h-1v1h1V427.16z M1599.916,429.16h-1v1h1V429.16z M1601.916,427.16h-1v1
	h1V427.16z M1601.916,429.16h-1v1h1V429.16z M1592.916,432.16h9v-1h-9V432.16z M1592.916,430.16h1v-1h-1V430.16z M1592.916,428.16h1
	v-1h-1V428.16z M1590.916,432.16h1v-1h-1V432.16z M1590.916,430.16h1v-1h-1V430.16z M1590.916,428.16h1v-1h-1V428.16z
	 M1605.916,435.16h-18v-11h19v11H1605.916z M1605.916,425.16h-17v9h17V425.16z"/>
<path fill="#03CF5D" d="M1234.426,197.561h14v7h-15v-7H1234.426z M1246.426,203.561h1v-1h-1V203.561z M1246.426,201.561h1v-1h-1
	V201.561z M1246.426,199.561h1v-1h-1V199.561z M1239.426,198.561h-1v1h1V198.561z M1239.426,200.561h-1v1h1V200.561z
	 M1241.426,198.561h-1v1h1V198.561z M1241.426,200.561h-1v1h1V200.561z M1243.426,198.561h-1v1h1V198.561z M1243.426,200.561h-1v1h1
	V200.561z M1245.426,198.561h-1v1h1V198.561z M1245.426,200.561h-1v1h1V200.561z M1236.426,203.561h9v-1h-9V203.561z
	 M1236.426,201.561h1v-1h-1V201.561z M1236.426,199.561h1v-1h-1V199.561z M1234.426,203.561h1v-1h-1V203.561z M1234.426,201.561h1
	v-1h-1V201.561z M1234.426,199.561h1v-1h-1V199.561z M1249.426,206.561h-18v-11h19v11H1249.426z M1249.426,196.561h-17v9h17V196.561
	z"/>
<g>
	<g transform="translate(58 16)">
		<path fill="#03CF5D" d="M-151.382,20.116l-8.891-13.76v13.76h-9.738v-27.52h9.526l8.892,13.655V-7.404h9.737v27.52H-151.382z"/>
		<path fill="#03CF5D" d="M-116.663,20.116h10.161l-9.95-27.52h-11.854l-9.95,27.52h10.161l1.165-4.021h9.209L-116.663,20.116z
			 M-125.131,9.849l2.857-9.844l2.858,9.844H-125.131z"/>
		<path fill="#03CF5D" d="M-89.672,20.116l9.949-27.52h-9.843l-5.61,18.311l-5.61-18.311h-9.95l9.95,27.52H-89.672z"/>
		<path fill="#03CF5D" d="M-49.345,20.116h9.209V12.84h2.646l4.763,7.276h10.161l-6.985-9.49c3.28-1.37,5.08-4.217,5.08-8.013
			c0-3.585-1.271-6.116-3.81-7.803c-2.224-1.476-5.082-2.214-9.315-2.214h-11.749V20.116z M-34.632,4.722
			c-0.636,0.527-1.481,0.737-2.223,0.737h-3.599V0.083h3.599c0.847,0,1.694,0.21,2.328,0.736c0.529,0.527,0.741,1.161,0.741,2.005
			C-33.785,3.562-34.103,4.299-34.632,4.722z"/>
		<path fill="#03CF5D" d="M-53.473,20.116v-6.88h-13.019v-3.6h11.855V3.075h-11.855v-3.6h12.702v-6.879h-22.016v27.52H-53.473z"/>
	</g>
	<g transform="translate(9 20)" opacity="0.2">
		<path fill="#C5C5C5" d="M-134.983,3.627c-1.799-2.435-4.339-4.341-6.139-5.293c-7.409-3.917-16.936-6.245-24.24-2.329
			c-10.69,5.822-8.149,15.878,0.848,21.699c0.847,0.529,1.164,0.847,1.693,1.059c0,0.317,0.212,0.424,0.529,0.635
			c0.741,0.529,2.222,1.165,3.175,0.953c0.212,0.105,0.424,0.105,0.635,0.212c7.621,2.751,15.56,1.692,20.747-2.435
			c3.069-2.436,5.081-4.976,5.186-8.786C-132.654,7.014-134.559,4.155-134.983,3.627z"/>
		<path fill="#707070" d="M-134.347,3.943c-0.953-1.375-5.082-5.609-6.88-6.563c-7.409-3.917-16.513-6.244-23.922-2.329
			c-10.69,5.717-8.468,15.772,0.424,21.699c0.847,0.529,1.271,0.848,2.011,1.165c0,0.212,0.106,0.423,0.318,0.529
			c0.74,0.529,2.117,1.164,2.963,0.952c0.105,0,0.635,0.212,0.741,0.318c7.727,2.856,15.453,1.692,20.746-2.541
			c3.07-2.435,5.187-4.975,5.187-8.785C-132.866,6.907-134.136,4.155-134.347,3.943z"/>
	</g>
	
		<radialGradient id="SVGID_1_" cx="-4.7373" cy="2.2061" r="1.1997" gradientTransform="matrix(26.82 0 0 -26.82 -3.7368 96.0349)" gradientUnits="userSpaceOnUse">
		<stop  offset="0" style="stop-color:#FCF6D9"/>
		<stop  offset="0.1245" style="stop-color:#F8F0C9"/>
		<stop  offset="0.3681" style="stop-color:#EFE29E"/>
		<stop  offset="0.564" style="stop-color:#E7D577"/>
		<stop  offset="0.7778" style="stop-color:#DCCB60"/>
		<stop  offset="1" style="stop-color:#B6A466"/>
	</radialGradient>
	<path fill="url(#SVGID_1_)" d="M-123.866,27.86c0.106-4.551-5.186-9.421-8.361-11.114c-7.409-3.916-16.301-6.245-23.71-2.329
		c-10.69,5.716-8.997,15.877,0.105,21.699c10.056,6.456,20.111,5.821,26.886,0.529C-125.983,34.316-123.866,31.777-123.866,27.86z"
		/>
	
		<radialGradient id="SVGID_2_" cx="-6.2041" cy="0.7012" r="2.0011" gradientTransform="matrix(26.9001 0 0 -26.9 -18.3301 97.8594)" gradientUnits="userSpaceOnUse">
		<stop  offset="0" style="stop-color:#FCF6D9"/>
		<stop  offset="0.1245" style="stop-color:#F8F0C9"/>
		<stop  offset="0.3681" style="stop-color:#EFE29E"/>
		<stop  offset="0.564" style="stop-color:#E7D577"/>
		<stop  offset="0.7778" style="stop-color:#DCCB60"/>
		<stop  offset="1" style="stop-color:#B6A466"/>
	</radialGradient>
	<path opacity="0.2" fill="url(#SVGID_2_)" enable-background="new    " d="M-147.575,13.042c4.445,0,9.42,1.375,14.819,4.233
		c5.292,2.858,8.044,7.938,8.044,10.479c0,3.176-1.482,5.504-4.975,8.257c-3.387,2.646-7.303,4.022-11.749,4.022
		c-4.658,0-9.526-1.588-14.078-4.552c-4.658-3.07-7.198-7.304-7.092-11.221c0.105-3.704,2.54-6.985,6.88-9.209
		C-153.291,13.783-150.433,13.042-147.575,13.042z M-147.575,12.301c-2.964,0-5.821,0.634-8.468,2.011
		c-10.691,5.822-8.997,15.983,0.105,21.804c4.975,3.281,9.95,4.658,14.607,4.658c4.658,0,8.892-1.482,12.279-4.129
		c3.069-2.435,5.186-4.975,5.292-8.892c0.105-4.551-5.187-9.42-8.362-11.114C-137.097,14.206-142.389,12.301-147.575,12.301z"/>
	<path opacity="0.6" fill="#B6A466" enable-background="new    " d="M-129.158,36.434c-6.668,5.292-16.829,5.928-26.885-0.529
		c-4.763-3.069-7.409-7.409-7.409-11.537c-0.106,4.234,2.646,8.573,7.409,11.749c10.056,6.456,20.111,5.821,26.885,0.529
		c3.07-2.435,5.187-4.975,5.292-8.892v-0.105C-124.078,31.565-126.088,34.104-129.158,36.434z"/>
	<g transform="translate(16)">
		
			<linearGradient id="SVGID_3_" gradientUnits="userSpaceOnUse" x1="-22.9482" y1="3.4546" x2="-21.9004" y2="2.5044" gradientTransform="matrix(22.4781 0 0 -27.3383 342.4468 88.9179)">
			<stop  offset="0.1522" style="stop-color:#DDDDE8"/>
			<stop  offset="0.7534" style="stop-color:#B8B8C3"/>
			<stop  offset="1" style="stop-color:#CFCFD6"/>
		</linearGradient>
		<path fill="url(#SVGID_3_)" d="M-156.801,4.679c-5.715-2.963-11.326-8.044-13.548-12.384c-0.953-1.798-3.175,0.636-0.529,6.14
			c-0.424,0.211-0.635,1.905,0.105,3.916c0.318,0.741,0.741,1.482,1.271,2.435c-0.105,3.599,3.599,8.468,7.304,11.537
			c2.223,1.8,4.446,3.07,6.351,3.705c1.693,0.529,3.705,0.847,5.08,0.424c0,0,1.588-0.317,2.117-2.012
			C-147.592,14.735-148.968,8.701-156.801,4.679z"/>
		
			<linearGradient id="SVGID_4_" gradientUnits="userSpaceOnUse" x1="-22.4805" y1="2.8296" x2="-22.6851" y2="2.5254" gradientTransform="matrix(22.115 0 0 -26.9954 337.2556 80.9159)">
			<stop  offset="0" style="stop-color:#E1E1EA"/>
			<stop  offset="0.2013" style="stop-color:#D5D5DF"/>
			<stop  offset="0.6958" style="stop-color:#BDBDC8"/>
			<stop  offset="1" style="stop-color:#B4B4C0"/>
		</linearGradient>
		<path opacity="0.8" fill="url(#SVGID_4_)" enable-background="new    " d="M-157.224,4.574
			c-7.516-3.811-11.008-7.516-13.231-12.067c-0.953-1.905-2.541,1.271-0.106,6.563c-0.741,0.953-0.105,4.234,2.224,7.515
			c0.846,3.599,2.963,6.669,7.409,10.479c4.234,3.6,9.737,4.869,11.643,1.482C-147.063,15.264-149.075,8.596-157.224,4.574z"/>
	</g>
	
		<linearGradient id="SVGID_5_" gradientUnits="userSpaceOnUse" x1="-10.4434" y1="-21.6025" x2="-9.6614" y2="-21.5186" gradientTransform="matrix(15.7569 0 0 -12.448 -1.2597 -243.3588)">
		<stop  offset="0" style="stop-color:#958D60;stop-opacity:0.4"/>
		<stop  offset="1" style="stop-color:#958D60"/>
	</linearGradient>
	<path fill="url(#SVGID_5_)" d="M-158.372,20.134c-1.482-0.848-0.529-3.07-2.646-1.059c-3.6,4.022-2.224,8.256-0.741,11.008
		c3.175,2.117,13.76,2.434,15.136-4.234C-154.562,24.049-157.842,20.663-158.372,20.134z"/>
	
		<radialGradient id="SVGID_6_" cx="-6.6509" cy="-2.207" r="0.8908" gradientTransform="matrix(21.4036 0 0 -21.4035 0.4774 -39.7761)" gradientUnits="userSpaceOnUse">
		<stop  offset="0" style="stop-color:#FCF6D9"/>
		<stop  offset="0.1324" style="stop-color:#F8F0C9"/>
		<stop  offset="0.3917" style="stop-color:#EFE29E"/>
		<stop  offset="0.6" style="stop-color:#E7D577"/>
		<stop  offset="0.9" style="stop-color:#C4AC54"/>
	</radialGradient>
	<path fill="url(#SVGID_6_)" d="M-133.392,27.437c4.763-4.127,1.694-12.385,0.529-14.29c-0.635-1.058-1.481-2.117-2.54-3.069
		c-6.775-5.716-13.443-3.917-17.042-1.694c-1.693,0.953-3.069,2.541-4.127,4.022c-2.965,6.245-1.694,12.701-1.694,12.701
		C-149.904,29.871-140.589,29.554-133.392,27.437z"/>
	<path opacity="0.4" fill="#D6C486" enable-background="new    " d="M-156.784,12.618c-2.646,5.821-1.8,11.96-1.694,12.489
		c0.106,0.212,0.212,0.318,0.318,0.318c-0.106-0.953-0.848-6.457,1.481-11.961c0.106-0.317,0.317-0.529,0.529-0.846
		c0.847-1.164,1.905-2.329,3.176-3.176c0.424-0.317,0.846-0.529,1.27-0.741c3.493-1.693,9.209-2.963,15.031,1.482
		c0.741,0.529,1.481,1.164,2.01,1.905c0.212,0.212,0.318,0.424,0.529,0.636c0.529,0.634,1.059,1.693,1.482,2.963
		c0.847,2.54,1.905,7.198-0.212,10.373h0.106c2.963-3.81,1.059-9.844,0-12.278c-0.212-0.318-0.318-0.636-0.529-0.848
		c-0.636-0.952-1.083-1.905-2.036-2.751c-7.284-6.141-13.832-3.792-17.431-1.674C-154.446,9.462-155.726,11.137-156.784,12.618z"/>
	
		<radialGradient id="SVGID_7_" cx="-6.8447" cy="-2.0234" r="0.9288" gradientTransform="matrix(21.4036 0 0 -21.4035 -0.3819 -39.7761)" gradientUnits="userSpaceOnUse">
		<stop  offset="0" style="stop-color:#D4B94E"/>
		<stop  offset="0.3718" style="stop-color:#E0CD7F;stop-opacity:0.785"/>
		<stop  offset="0.5834" style="stop-color:#EDE2B6;stop-opacity:0.521"/>
		<stop  offset="0.7663" style="stop-color:#F7F2DE;stop-opacity:0.292"/>
		<stop  offset="0.9112" style="stop-color:#FDFBF6;stop-opacity:0.111"/>
		<stop  offset="1" style="stop-color:#FFFFFF;stop-opacity:0"/>
	</radialGradient>
	<path opacity="0.3" fill="url(#SVGID_7_)" enable-background="new    " d="M-133.392,27.437c4.763-4.127,1.694-12.385,0.529-14.29
		c-0.635-1.058-1.481-2.117-2.54-3.069c-6.775-5.716-13.443-3.917-17.042-1.694c-1.693,0.953-3.069,2.541-4.127,4.022
		c-2.965,6.245-1.694,12.701-1.694,12.701C-149.904,29.871-140.589,29.554-133.392,27.437z"/>
	
		<linearGradient id="SVGID_8_" gradientUnits="userSpaceOnUse" x1="-5.687" y1="-12.8623" x2="-4.63" y2="-12.8887" gradientTransform="matrix(26.4631 0 0 -15.4243 -2.0563 -167.5892)">
		<stop  offset="0.0034" style="stop-color:#00215E"/>
		<stop  offset="1" style="stop-color:#000000"/>
	</linearGradient>
	<path opacity="0.2" fill="url(#SVGID_8_)" enable-background="new    " d="M-125.454,22.991c-0.212-0.317-0.635,0-0.952,0.318
		c-1.906,1.904-5.292,6.562-13.549,8.997c-1.693,0.528-3.598,1.058-5.398,1.587l-0.635-0.529c-0.106-0.106-0.424-0.106-0.529-0.106
		l-2.752,1.165c-0.317,0.105-0.317,0.423-0.212,0.529c0.212,0.211,0.212,0.317,0.212,0.317c-0.952,0.317-1.693,0.741-2.646,1.271
		c-0.952,0.529-0.952,0.952-0.846,1.059c0.529,0.423,2.963,1.376,3.493,1.588c-0.212-0.106,0-0.636,0.424-0.848
		c0.423-0.317,1.059-0.635,1.587-0.847l0.423,0.424c0.212,0.212,0.424,0.212,0.636,0.212l3.175-1.059
		c0.212-0.106,0.317-0.424,0.105-0.636s-0.634-0.317-0.634-0.317c0.741-0.317,2.963-1.059,4.339-1.482
		c7.41-2.117,10.162-4.974,12.809-7.938c0.634-0.74,1.375-1.799,1.587-1.693C-124.712,24.367-125.03,23.731-125.454,22.991z"/>
	
		<radialGradient id="SVGID_9_" cx="-8.811" cy="-12.0332" r="0.6975" gradientTransform="matrix(15.905 0.2318 0.2318 -15.905 11.0706 -156.9441)" gradientUnits="userSpaceOnUse">
		<stop  offset="0" style="stop-color:#FFAE15"/>
		<stop  offset="0.0142" style="stop-color:#FFAD14"/>
		<stop  offset="0.3295" style="stop-color:#FF9A0A"/>
		<stop  offset="0.6541" style="stop-color:#FF8F04"/>
		<stop  offset="1" style="stop-color:#FF8B02"/>
	</radialGradient>
	<path fill="url(#SVGID_9_)" d="M-126.195,22.462c-1.798,2.011-5.292,7.092-13.336,9.421c-4.975,1.375-10.479,3.492-13.336,5.397
		c-0.318,0.212-0.212,0.741-0.106,0.848c0.741,0.635,2.434,1.27,3.07,0.952c-0.212-0.105,0.317-0.635,0.635-0.847
		c2.541-1.588,6.563-3.07,10.796-4.234c8.785-2.646,12.384-7.938,13.548-9.421c0.212-0.211,0.212-0.211,0.424-0.211
		c0.105-0.424-0.106-0.74-0.741-1.693C-125.666,22.462-125.983,22.145-126.195,22.462z"/>
	
		<linearGradient id="SVGID_10_" gradientUnits="userSpaceOnUse" x1="-38.771" y1="-194.1553" x2="-39.0111" y2="-195.1446" gradientTransform="matrix(4.4 0 0 -2.5798 19.7578 -463.0257)">
		<stop  offset="0" style="stop-color:#7B4917;stop-opacity:0"/>
		<stop  offset="0.8" style="stop-color:#7B4917"/>
	</linearGradient>
	<path fill="url(#SVGID_10_)" d="M-151.174,36.963c-0.105-0.105-0.105-0.317-0.105-0.529c-0.529,0.317-1.058,0.636-1.587,0.847
		c-0.318,0.212-0.212,0.741-0.106,0.848c0.741,0.635,2.434,1.27,3.07,0.952c-0.212-0.105,0.317-0.635,0.635-0.847
		s0.424-0.317,0.847-0.529C-149.481,37.599-150.857,37.28-151.174,36.963z"/>
	
		<linearGradient id="SVGID_11_" gradientUnits="userSpaceOnUse" x1="-68.1587" y1="-189.9917" x2="-67.6084" y2="-189.6012" gradientTransform="matrix(2.5241 0 0 -2.6269 46.0304 -475.2213)">
		<stop  offset="0" style="stop-color:#7B4917;stop-opacity:0"/>
		<stop  offset="0.8" style="stop-color:#7B4917"/>
	</linearGradient>
	<path opacity="0.4" fill="url(#SVGID_11_)" enable-background="new    " d="M-125.454,22.674c-0.105-0.212-0.529-0.529-0.741-0.212
		c-0.317,0.318-0.634,0.741-1.058,1.165c0.212-0.106,0.424,0.104,0.636,0.316c0.634,0.529,0.846,0.741,1.058,1.164
		c0.212-0.211,0.317-0.423,0.423-0.529c0.212-0.211,0.318-0.211,0.529-0.211C-124.5,23.943-124.712,23.627-125.454,22.674z"/>
	
		<radialGradient id="SVGID_12_" cx="-12.9648" cy="-25.5679" r="0.7613" gradientTransform="matrix(11.4575 0.2192 0.2192 -11.4574 11.2663 -277.23)" gradientUnits="userSpaceOnUse">
		<stop  offset="0" style="stop-color:#FFFFFF;stop-opacity:0.7"/>
		<stop  offset="1" style="stop-color:#FFFFFF;stop-opacity:0"/>
	</radialGradient>
	<path fill="url(#SVGID_12_)" d="M-134.451,12.725c-1.481-2.646-6.456-6.034-13.019-4.34c-4.868,1.165-4.975,3.599-4.975,3.811
		c0.529,1.905,3.07,5.715,5.821,7.091C-140.907,21.827-131.38,17.698-134.451,12.725z"/>
	
		<radialGradient id="SVGID_13_" cx="-18.4712" cy="-37.7627" r="1.1464" gradientTransform="matrix(9.054 0 0 -9.054 15.3699 -332.0573)" gradientUnits="userSpaceOnUse">
		<stop  offset="0.2" style="stop-color:#D4B94E"/>
		<stop  offset="0.2888" style="stop-color:#D6BD57;stop-opacity:0.889"/>
		<stop  offset="0.4337" style="stop-color:#DCC66F;stop-opacity:0.708"/>
		<stop  offset="0.6166" style="stop-color:#E6D697;stop-opacity:0.479"/>
		<stop  offset="0.8282" style="stop-color:#F3EBCE;stop-opacity:0.215"/>
		<stop  offset="1" style="stop-color:#FFFFFF;stop-opacity:0"/>
	</radialGradient>
	<path opacity="0.5" fill="url(#SVGID_13_)" enable-background="new    " d="M-152.55,16.852c0,0,3.175-4.763,7.621-6.244
		l1.693,0.105c0.317,6.985-3.07,9.526-7.092,9.632C-152.656,20.345-153.186,19.075-152.55,16.852z"/>
	
		<radialGradient id="SVGID_14_" cx="-17.2852" cy="-34.8535" r="0.765" gradientTransform="matrix(9.6237 0 0 -9.6237 24.3325 -318.6053)" gradientUnits="userSpaceOnUse">
		<stop  offset="0.1295" style="stop-color:#D4B94E"/>
		<stop  offset="1" style="stop-color:#D4B94E;stop-opacity:0"/>
	</radialGradient>
	<path opacity="0.6" fill="url(#SVGID_14_)" enable-background="new    " d="M-142.707,10.818c3.281,1.8,5.822,5.081,6.351,7.304
		c0,0,0.317,1.271,0.529,2.858c0,0,5.716-2.435,2.117-8.15C-137.309,7.008-142.707,10.818-142.707,10.818z"/>
	<g transform="translate(26 16)">
		<path fill="#AA955E" d="M-167.648-5.816c0.212,0.635-0.529,1.271-1.8,1.271c-1.164,0-2.01-0.636-2.01-1.271
			s0.635-1.164,1.799-1.164C-168.707-6.98-167.86-6.558-167.648-5.816z"/>
		
			<radialGradient id="SVGID_15_" cx="-101.123" cy="-235.2847" r="1.1407" gradientTransform="matrix(2.3 0 0 -2.3 63.7747 -548.841)" gradientUnits="userSpaceOnUse">
			<stop  offset="0" style="stop-color:#E7D577"/>
			<stop  offset="0.7567" style="stop-color:#E7D577"/>
			<stop  offset="0.9333" style="stop-color:#DCCB60"/>
			<stop  offset="1" style="stop-color:#D6C25C"/>
		</radialGradient>
		<path fill="url(#SVGID_15_)" d="M-167.648-6.24c0.212,0.636-0.529,1.271-1.8,1.271c-1.164,0-2.01-0.635-2.01-1.271
			c0-0.635,0.635-1.164,1.799-1.164C-168.601-7.299-167.86-6.875-167.648-6.24z"/>
	</g>
	
		<radialGradient id="SVGID_16_" cx="-97.4917" cy="-312.7529" r="0.7501" gradientTransform="matrix(1.674 0.0325 0.0325 -1.674 30.1366 -511.0603)" gradientUnits="userSpaceOnUse">
		<stop  offset="0" style="stop-color:#FFFFFF;stop-opacity:0.7"/>
		<stop  offset="1" style="stop-color:#FFFFFF;stop-opacity:0"/>
	</radialGradient>
	<path fill="url(#SVGID_16_)" d="M-142.072,9.337c-0.211-0.317-0.952-0.846-1.798-0.636c-0.741,0.212-0.741,0.529-0.741,0.529
		c0.105,0.318,0.423,0.848,0.847,1.059C-143.024,10.713-141.648,10.078-142.072,9.337z"/>
	
		<linearGradient id="SVGID_17_" gradientUnits="userSpaceOnUse" x1="-14.832" y1="-11.0898" x2="-13.7708" y2="-11.0898" gradientTransform="matrix(11.2137 0 0 -16.2 7.8412 -161.7344)">
		<stop  offset="0" style="stop-color:#958D60;stop-opacity:0.7"/>
		<stop  offset="1" style="stop-color:#958D60;stop-opacity:0.9"/>
	</linearGradient>
	<path opacity="0.7" fill="url(#SVGID_17_)" enable-background="new    " d="M-158.478,19.393
		c2.012,4.763,11.432,7.092,11.432,7.092c2.117-6.14-4.023-11.643-6.033-14.078c-0.953-1.164-1.059-2.328-0.847-3.069
		c-0.953,0.847-1.8,1.905-2.541,2.964C-157.842,14.735-158.266,17.275-158.478,19.393z"/>
	
		<linearGradient id="SVGID_18_" gradientUnits="userSpaceOnUse" x1="-14.1636" y1="-14.2471" x2="-13.5646" y2="-14.5952" gradientTransform="matrix(11.6 0 0 -14.7167 7.7578 -200.1408)">
		<stop  offset="0.2" style="stop-color:#D4B94E"/>
		<stop  offset="0.2888" style="stop-color:#D6BD57;stop-opacity:0.889"/>
		<stop  offset="0.4337" style="stop-color:#DCC66F;stop-opacity:0.708"/>
		<stop  offset="0.6166" style="stop-color:#E6D697;stop-opacity:0.479"/>
		<stop  offset="0.8282" style="stop-color:#F3EBCE;stop-opacity:0.215"/>
		<stop  offset="1" style="stop-color:#FFFFFF;stop-opacity:0"/>
	</linearGradient>
	<path opacity="0.7" fill="url(#SVGID_18_)" enable-background="new    " d="M-156.572,12.301c-0.848,1.799-1.377,3.704-1.588,5.397
		c0.847,1.8,2.963,4.023,4.127,4.234c3.493,0.529,8.045-11.008,8.15-14.5c0-0.529-0.105-0.848-0.317-1.059
		c-2.541,0.211-4.763,1.059-6.351,2.011C-154.244,9.23-155.514,10.818-156.572,12.301z"/>
	<path fill="#D17111" d="M-124.607,23.943c0.106,0.212,0.106,0.317,0,0.424c-0.211,0-0.211,0-0.423,0.211
		c-1.165,1.482-4.87,6.881-13.548,9.421c-4.234,1.271-8.15,2.646-10.796,4.234c-0.317,0.212-0.847,0.635-0.636,0.847
		c-0.105,0.212-0.317,0.212-0.635,0.212c0,0-0.212-0.424,0.741-1.059c0.952-0.635,4.975-2.646,11.114-4.34
		c0,0,8.468-2.116,13.443-9.315C-125.347,24.473-124.924,23.627-124.607,23.943z"/>
	<g transform="translate(22 38)">
		<path fill="#5F6672" d="M-167.987-3.896l1.905,1.906l-2.117,0.74l-1.905-1.905L-167.987-3.896z M-167.987-4.848h-0.318
			l-3.175,0.847c-0.105,0.105-0.105,0.529,0,0.635l2.646,2.858c0.106,0.106,0.212,0.212,0.318,0.212h0.317l3.175-1.164
			c0.105-0.106,0.212-0.424,0-0.636l-2.752-2.646C-167.67-4.742-167.776-4.848-167.987-4.848z"/>
		
			<linearGradient id="SVGID_19_" gradientUnits="userSpaceOnUse" x1="-48.8506" y1="-141.5347" x2="-48.7369" y2="-142.6917" gradientTransform="matrix(6.25 0 0 -4.4 136.7305 -627.9422)">
			<stop  offset="0" style="stop-color:#E4E4E6"/>
			<stop  offset="1" style="stop-color:#BEBEBF"/>
		</linearGradient>
		<path fill="url(#SVGID_19_)" d="M-167.987-4.213l1.799,1.905l-2.011,0.741l-1.905-1.905L-167.987-4.213z M-167.987-5.165h-0.318
			l-3.175,1.164c-0.105,0.105-0.105,0.212,0,0.424l2.646,2.857c0.106,0.106,0.212,0.212,0.318,0.212h0.317l3.175-1.164
			c0.105-0.106,0.105-0.212,0-0.424l-2.646-2.858C-167.564-5.06-167.776-5.165-167.987-5.165z"/>
		
			<radialGradient id="SVGID_20_" cx="-20.0278" cy="-198.9741" r="1.5807" gradientTransform="matrix(3.05 0.9684 0.9684 -3.0499 85.9869 -588.0743)" gradientUnits="userSpaceOnUse">
			<stop  offset="0" style="stop-color:#FFFFFF"/>
			<stop  offset="1" style="stop-color:#FFFFFF"/>
		</radialGradient>
		<path fill="url(#SVGID_20_)" d="M-165.236-2.308c0.212,0.212,0.529,0.424,0.212,0.529l-2.963,1.059h-0.318
			c-0.105,0-0.211-0.105-0.317-0.211l-2.54-2.646c-0.212-0.212,0-0.318,0.105-0.424l0.212-0.105c-0.106,0-0.106,0.317,0,0.529
			l2.222,2.435c0.106,0.105,0.212,0.105,0.317,0.212h0.212l2.541-0.953C-165.024-2.096-165.236-2.308-165.236-2.308z"/>
	</g>
	
		<linearGradient id="SVGID_21_" gradientUnits="userSpaceOnUse" x1="-5.4253" y1="-20.5796" x2="-4.3667" y2="-20.5796" gradientTransform="matrix(27.6387 0 0 -12.721 -9.4866 -236.9354)">
		<stop  offset="0" style="stop-color:#000000"/>
		<stop  offset="0.1157" style="stop-color:#101112"/>
		<stop  offset="0.5204" style="stop-color:#45474B"/>
		<stop  offset="0.7152" style="stop-color:#595C61"/>
		<stop  offset="0.7942" style="stop-color:#505156"/>
		<stop  offset="0.9317" style="stop-color:#37353A"/>
		<stop  offset="1" style="stop-color:#292529"/>
	</linearGradient>
	<path fill="url(#SVGID_21_)" d="M-159.43,22.145c0,4.657,8.256,10.372,18.629,9.314c6.457-0.635,11.114-4.764,10.584-8.785
		c-0.317-2.54-0.741-4.446-1.058-4.552c0.106,3.388-3.493,7.197-9.42,7.621c-7.833,0.529-16.406-3.811-17.783-7.621
		C-158.372,18.122-159.43,19.181-159.43,22.145z"/>
	<g transform="translate(0 7)">
		
			<linearGradient id="SVGID_22_" gradientUnits="userSpaceOnUse" x1="-6.3901" y1="-2.7026" x2="-5.3384" y2="-3.6533" gradientTransform="matrix(24.2894 0 0 -28.5356 -18.7006 -82.1057)">
			<stop  offset="0.1522" style="stop-color:#DDDDE8"/>
			<stop  offset="0.7534" style="stop-color:#B8B8C3"/>
			<stop  offset="1" style="stop-color:#CFCFD6"/>
		</linearGradient>
		<path fill="url(#SVGID_22_)" d="M-156.043,5.513c-6.14-3.07-12.172-8.256-14.818-12.808c-1.059-1.905-3.387,0.741-0.424,6.457
			c-0.529,0.317-0.741,2.011,0.212,4.127c0.317,0.848,0.847,1.694,1.376,2.541c0,3.81,4.022,8.892,7.938,12.066
			c2.329,1.905,4.763,3.176,6.88,3.811c1.8,0.529,3.917,0.847,5.398,0.317c0,0,1.694-0.423,2.117-2.117
			C-146.199,16.098-147.787,9.64-156.043,5.513z"/>
		<g transform="translate(3 13)" opacity="0.6">
			<path fill="#CECED5" d="M-164.124,1.51c-1.588-1.165-3.069-2.541-4.339-3.812c-1.271-1.376-2.541-2.963-4.022-4.656
				c0,1.905,0.952,4.127,2.434,6.244s3.493,4.234,5.504,5.821c2.329,1.906,4.763,3.176,6.88,3.812
				C-157.562,8.707-158.938,5.426-164.124,1.51z"/>
			<path fill="#FDFDFF" d="M-171.215-5.265c0.952,1.165,1.799,2.117,2.646,3.07l0.74,0.741c0.636,0.635,1.271,1.164,2.012,1.799
				c0.635,0.529,1.376,1.059,2.012,1.588c1.587,1.377,1.693,2.011,2.54,3.069c-1.588-0.635-1.693-0.424-3.387-1.587
				c-0.423-0.317-0.74-0.635-1.164-0.953c-0.635-0.529-1.271-1.164-1.8-1.693c-0.634-0.635-1.27-1.271-1.693-2.012
				c-0.106-0.105-0.212-0.317-0.317-0.423C-170.581-3.148-171.11-4.419-171.215-5.265"/>
		</g>
		<g transform="translate(1 6)" opacity="0.8">
			<path fill="#CECED5" d="M-150.375,16.236c0,0-0.212-0.741-0.636-1.693c-0.847-1.906-2.646-5.187-6.139-7.304
				c-3.81-2.329-6.88-4.658-9.526-7.092c-2.435-2.434-4.446-4.763-5.504-6.773c-0.529,0.211-0.74,2.011,0.212,4.127
				c0.317,0.741,0.847,1.588,1.376,2.541c0.529,0.741,4.869,6.033,8.15,8.361c3.07,2.117,4.975,4.657,5.928,6.14
				c0.423,0.74,0.74,1.164,0.74,1.27C-153.867,16.448-151.857,16.66-150.375,16.236z"/>
			<path fill="#F6F6F9" d="M-171.438-5.568c0.847,1.587,2.646,3.598,4.975,5.715c0.317,0.317,0.741,0.636,1.058,0.953
				c2.012,1.799,4.446,3.598,6.986,5.292c0.741,0.529,1.376,1.059,2.011,1.588c2.012,1.905,2.752,3.704,3.07,4.551
				c0.21,0.635,0.21,1.059,0.105,1.059c-1.271,0.105-2.752-0.212-4.339-0.741c-0.106-0.105-0.318-0.423-0.636-0.952
				c-0.317-0.424-0.635-0.848-1.164-1.376c-0.953-1.059-2.224-2.435-3.917-3.599c-1.164-0.847-2.435-2.117-3.705-3.388
				c-1.482-1.587-2.752-3.281-3.176-3.704c-0.212-0.317-0.529-0.741-0.634-1.059l-0.529-1.059
				C-171.968-3.98-171.968-5.568-171.438-5.568z"/>
		</g>
		<g transform="translate(1 1)">
			<path fill="#E4E4E7" d="M-172.603-7.555c0.105-0.212,0.317-0.317,0.423-0.317c0.212,0,0.529,0.212,0.741,0.424
				c0.212,0.423,0.424,0.74,0.636,1.059c1.164,1.693,2.646,3.493,4.974,5.503c2.329,2.117,5.399,4.023,8.151,5.399
				c1.27,0.634,2.541,1.375,3.599,2.117c3.069,2.01,4.657,4.657,5.292,5.927c0.846,1.8,0.422,3.599-0.317,4.657
				c-0.424,0.847-1.271,1.164-1.8,1.164c-0.636-0.635-3.599-4.975-7.197-7.832c-3.176-1.906-5.928-4.234-8.257-6.351
				c-1.799-1.694-3.281-3.388-4.339-4.975c-0.317-0.424-0.529-0.847-0.741-1.271c-0.635-1.271-1.059-2.541-1.164-3.599
				C-172.814-6.284-172.814-7.131-172.603-7.555z"/>
			<path fill="#F9F9FC" d="M-171.65-6.602c0.106-0.106,0.212-0.106,0.424,0c0.105,0.105,0.317,0.317,0.529,0.635
				c0.212,0.212,0.424,0.529,0.634,0.741c1.165,1.588,2.012,2.646,4.446,4.869c2.012,1.799,4.763,3.494,7.304,4.763
				c1.164,0.636,2.222,1.165,3.281,1.694c2.434,1.27,4.34,3.387,5.187,4.869c1.059,1.8,0.952,3.493-0.212,3.6
				c-0.529,0.317-1.271,0.212-1.905,0c-1.482-0.847-4.446-3.812-7.516-6.14c-2.434-1.694-4.869-3.599-6.668-5.292
				c-1.481-1.377-2.751-2.858-3.598-4.023c-0.212-0.317-0.424-0.74-0.636-1.059c-0.529-1.059-0.952-2.01-1.058-2.963
				C-171.861-5.649-171.861-6.284-171.65-6.602z"/>
		</g>
		<g opacity="0.5">
			<path fill="#9B9BB1" d="M-156.466,5.406c-6.034-3.069-11.749-8.149-14.29-12.702c-1.059-1.905-3.387,0.741-0.424,6.457
				c-0.529,0.317-0.74,2.011,0.212,4.127c0.212,0.848,0.741,1.694,1.271,2.541c0,3.81,4.022,8.892,7.938,12.066
				c2.329,1.905,4.763,3.176,6.88,3.811c1.8,0.529,3.917,0.847,5.398,0.317c0,0,1.694-0.423,2.117-2.117
				C-146.094,15.886-147.894,9.64-156.466,5.406z"/>
			<path fill="#BDBDD0" d="M-161.124,16.943c2.964,1.271-1.588-3.28-2.54-4.339c1.059,0.847,6.139,4.551,8.891,4.127
				c1.694-0.211-4.127-5.08-6.773-7.727c1.058,0.741,7.303,5.293,10.584,6.457c3.281,1.165,4.339-2.646,0.212-7.092
				c-1.27-1.058-2.964-2.328-4.763-3.175c-5.821-2.541-11.326-6.563-14.289-10.585c-1.694-2.435-3.494,0.423-0.318,6.139
				c-0.635-0.106-0.952,1.058-0.211,3.175c0.423,1.059,1.059,2.329,1.798,3.387c-0.423,0.847,1.271,4.127,1.377,4.339
				C-165.993,13.98-161.971,16.521-161.124,16.943z"/>
			<path fill="#E6E6EC" d="M-161.971,15.78c2.329,1.059-1.905-3.282-3.387-4.976c1.906,1.905,5.928,4.128,8.045,4.022
				c1.905-0.105-3.811-4.34-8.468-9.209c1.27,1.482,8.573,6.033,12.914,7.727c3.493,1.271,4.974-1.905,1.798-4.657
				c-1.164-0.846-2.751-2.011-4.234-2.752c-4.763-2.222-8.891-4.339-12.278-7.938c-3.07-2.963-3.599-0.211-0.105,5.716
				c-0.953-0.847-1.587-0.847-1.059,1.271c0.423,1.693,1.481,3.492,2.646,5.186c-1.482-1.376-0.212,1.482,0.211,2.117
				C-164.829,14.086-162.817,15.356-161.971,15.78z"/>
			<path fill="#FFFFFF" d="M-162.394,15.251c2.117,1.059-2.012-3.282-3.811-5.293c2.434,2.435,5.821,3.916,7.727,3.916
				c2.012,0-3.598-3.916-9.42-9.949c1.376,1.8,9.314,6.351,13.972,8.361c3.598,1.377,5.292-1.588,2.646-3.493
				c-1.165-0.741-2.752-1.905-3.917-2.54c-4.551-2.011-7.833-3.07-11.431-6.351c-3.811-3.494-3.705-0.636-0.106,5.186
				c-1.059-1.164-1.905-1.8-1.481,0.424c0.423,2.01,1.693,4.127,3.176,6.139c-2.012-2.541-0.953,0.212-0.318,1.059
				C-164.3,14.192-163.347,14.827-162.394,15.251z"/>
		</g>
		
			<linearGradient id="SVGID_23_" gradientUnits="userSpaceOnUse" x1="-6.6948" y1="-16.3638" x2="-6.8712" y2="-16.6464" gradientTransform="matrix(21.8209 0 0 -17.0632 -12.8764 -265.5727)">
			<stop  offset="0" style="stop-color:#ECECEF;stop-opacity:0"/>
			<stop  offset="1" style="stop-color:#C1C1CE"/>
		</linearGradient>
		<path fill="url(#SVGID_23_)" d="M-155.938,21.602c-1.905-0.636-4.234-1.8-6.456-3.6c-3.811-3.069-6.88-9.421-6.775-13.125
			c-0.529-0.74,11.009-1.164,15.877,1.799C-142.601,13.451-144.082,25.623-155.938,21.602z"/>
	</g>
</g>
<path fill="#FFFFFF" d="M420.945-284.14c-2.3,0-4.6,0.8-6.3,2.3c-1,0.9-1.8,1.9-2.4,3.2c-0.5,1.1-0.8,2.4-0.8,3.7v0.3
	c0,1.2,0.2,2.3,0.6,3.4c0.5,1.2,1.2,2.3,2.101,3.3c1,1,2.3,1.8,3.6,2.3c0.601,0.2,1.2-0.2,1.4-0.8c0.1-0.5-0.2-1-0.7-1.2
	c-1.3-0.4-2.4-1.2-3.3-2.3c-1.101-1.3-1.7-3-1.7-4.8c0-1.7,0.6-3.4,1.7-4.7c1.399-1.7,3.5-2.6,5.6-2.6c1.101,0,2.3,0.3,3.3,0.8
	c1.101,0.5,2,1.3,2.7,2.3s1.101,2.1,1.3,3.3c0.301,2.3-0.5,4.6-2.1,6.3c-0.4,0.4-0.4,1,0,1.3l4.6,4.6c0.2,0.2,0.5,0.3,0.7,0.3
	c0.3,0,0.5-0.1,0.7-0.3c0.4-0.4,0.4-1.1,0-1.5l-3.8-3.8l0.1-0.1c1.3-1.7,1.9-3.7,1.9-5.8c0-1.3-0.3-2.6-0.8-3.8
	c-0.5-1.2-1.301-2.3-2.301-3.2C425.545-283.24,423.245-284.14,420.945-284.14z M420.445-266.64c0,0.8,0.7,1.5,1.5,1.5
	s1.5-0.7,1.5-1.5s-0.7-1.5-1.5-1.5S420.445-267.44,420.445-266.64"/>
</svg>
